<svg id="kity_svg_6" xmlns="http://www.w3.org/2000/svg" xmlns:xlink="http://www.w3.org/1999/xlink" version="1.1" width="531" height="288" style="font-family: Arial, &quot;Microsoft Yahei&quot;,  &quot;Heiti SC&quot;; background: #fbfbfb" viewBox="360 66 531 288"><defs id="kity_defs_7"><linearGradient id="kity_linearGradient_17" x1="0" y1="0" x2="0" y2="1"><stop id="kity_stop_18" offset="0" stop-color="rgb(255, 255, 255)"></stop><stop id="kity_stop_19" offset="1" stop-color="rgb(204, 204, 204)"></stop></linearGradient><marker id="kity_marker_2" orient="auto" refX="6" refY="0" viewBox="-7 -7 14 14" markerWidth="7" markerHeight="7" markerUnits="userSpaceOnUse"><path id="kity_path_3" fill="rgb(115, 161, 191)" stroke="none" d="M6,0A6,6,0,1,1,-6,0A6,6,0,1,1,6,0"></path></marker></defs><g id="kity_g_8" transform="translate(0.5, 0.5)"><g id="minder1" text-rendering="optimize-speed" transform="translate( 434 210 )"><g id="minder_connect_group1"><path id="kity_path_31" fill="none" stroke="rgb(115, 161, 191)" stroke-width="1" marker-end="url(#kity_marker_2)" d="M57 0A229,108,0,0,1,286 -108" transform="translate( 0 0 )"></path><path id="kity_path_47" fill="none" stroke="rgb(115, 161, 191)" stroke-width="1" marker-end="url(#kity_marker_2)" d="M57 0A229,36,0,0,1,286 -36" transform="translate( 0 0 )"></path><path id="kity_path_55" fill="none" stroke="rgb(115, 161, 191)" stroke-width="1" marker-end="url(#kity_marker_2)" d="M57 0A229,36,0,0,0,286 36" transform="translate( 0 0 )"></path><path id="kity_path_63" fill="none" stroke="rgb(115, 161, 191)" stroke-width="1" marker-end="url(#kity_marker_2)" d="M57 0A229,108,0,0,0,286 108" transform="translate( 0 0 )"></path></g><g id="minder_node1" transform="matrix( 1 0 0 1 0 0 )"><path id="node_outline1" fill="rgb(115, 161, 191)" stroke="rgb(115, 161, 191)" d="M-49,-22h212a5,5,0,0,1,5,5v34a5,5,0,0,1,-5,5h-212a5,5,0,0,1,-5,-5v-34a5,5,0,0,1,5,-5z" stroke-width="3"></path><g id="node_text1" transform="translate( 0 0 )" fill="white"><text id="kity_text_22" text-rendering="inherit" dominant-baseline="text-before-edge" font-size="16" dy="0" y="-8">页面初始化数据分类</text></g><g id="node_priority1" transform="translate( -30 -10 )"><path id="kity_path_104" fill="#840023" stroke="none" d="M0,13c0,3.866,3.134,7,7,7h6c3.866,0,7-3.134,7-7V7H0V13z" transform="translate( 0.5 0.5 )"></path><path id="kity_path_105" fill="#FF1200" stroke="none" d="M20,10c0,3.866-3.134,7-7,7H7c-3.866,0-7-3.134-7-7V7c0-3.866,3.134-7,7-7h6c3.866,0,7,3.134,7,7V10z" opacity="0.8" transform="translate( 0.5 0.5 )"></path><text id="kity_text_106" text-rendering="geometricPrecision" x="9.5" y="10" text-anchor="middle" font-style="italic" font-size="12" fill="white" dy="4">1</text></g></g><g id="kity_g_14" display="none"><path id="kity_path_15" fill="rgba(0, 92, 153, 0.5)" stroke="none" d="M303,-19h96v20h-96z"></path><path id="kity_path_16" fill="none" stroke="rgb(0, 76, 128)" d="M303,-19L399,-19" stroke-width="1"></path></g><g id="minder_node2" transform="matrix( 1 0 0 1 333 -108 )" opacity="1"><g id="node_expander1" transform="translate( -52 0 )" style="cursor: pointer;" display="none"><path id="kity_path_36" fill="white" stroke="gray" d="M6,0A6,6,0,1,1,-6,0A6,6,0,1,1,6,0"></path><path id="kity_path_37" fill="none" stroke="gray" d="M-4.5,0L4.5,0"></path></g><path id="node_outline2" fill="rgb(238, 243, 246)" stroke="rgb(115, 161, 191)" d="M-42,-16h143a3,3,0,0,1,3,3v26a3,3,0,0,1,-3,3h-143a3,3,0,0,1,-3,-3v-26a3,3,0,0,1,3,-3z" stroke-width="1"></path><g id="node_text2" transform="translate( 0 0 )" fill="black"><text id="kity_text_33" text-rendering="inherit" dominant-baseline="text-before-edge" font-size="14" dy="0" y="-7">全局配置数据</text></g><g id="node_priority2" transform="translate( -25 -10 )"><path id="kity_path_109" fill="#01467F" stroke="none" d="M0,13c0,3.866,3.134,7,7,7h6c3.866,0,7-3.134,7-7V7H0V13z" transform="translate( 0.5 0.5 )"></path><path id="kity_path_110" fill="#0074FF" stroke="none" d="M20,10c0,3.866-3.134,7-7,7H7c-3.866,0-7-3.134-7-7V7c0-3.866,3.134-7,7-7h6c3.866,0,7,3.134,7,7V10z" opacity="0.8" transform="translate( 0.5 0.5 )"></path><text id="kity_text_111" text-rendering="geometricPrecision" x="9.5" y="10" text-anchor="middle" font-style="italic" font-size="12" fill="white" dy="4">2</text></g></g><g id="minder_node4" transform="matrix( 1 0 0 1 333 -36 )" opacity="1"><g id="node_expander3" transform="translate( -52 0 )" style="cursor: pointer;" display="none"><path id="kity_path_52" fill="white" stroke="gray" d="M6,0A6,6,0,1,1,-6,0A6,6,0,1,1,6,0"></path><path id="kity_path_53" fill="none" stroke="gray"></path></g><path id="node_outline4" fill="rgb(238, 243, 246)" stroke="rgb(115, 161, 191)" d="M-42,-16h143a3,3,0,0,1,3,3v26a3,3,0,0,1,-3,3h-143a3,3,0,0,1,-3,-3v-26a3,3,0,0,1,3,-3z" stroke-width="1"></path><g id="node_text4" transform="translate( 0 0 )" fill="black"><text id="kity_text_49" text-rendering="inherit" dominant-baseline="text-before-edge" font-size="14" dy="0" y="-7">页面配置数据</text></g><g id="node_priority3" transform="translate( -25 -10 )"><path id="kity_path_114" fill="#006300" stroke="none" d="M0,13c0,3.866,3.134,7,7,7h6c3.866,0,7-3.134,7-7V7H0V13z" transform="translate( 0.5 0.5 )"></path><path id="kity_path_115" fill="#00AF00" stroke="none" d="M20,10c0,3.866-3.134,7-7,7H7c-3.866,0-7-3.134-7-7V7c0-3.866,3.134-7,7-7h6c3.866,0,7,3.134,7,7V10z" opacity="0.8" transform="translate( 0.5 0.5 )"></path><text id="kity_text_116" text-rendering="geometricPrecision" x="9.5" y="10" text-anchor="middle" font-style="italic" font-size="12" fill="white" dy="4">3</text></g></g><g id="minder_node5" transform="matrix( 1 0 0 1 333 36 )" opacity="1"><g id="node_expander4" transform="translate( -52 0 )" style="cursor: pointer;" display="none"><path id="kity_path_60" fill="white" stroke="gray" d="M6,0A6,6,0,1,1,-6,0A6,6,0,1,1,6,0"></path><path id="kity_path_61" fill="none" stroke="gray"></path></g><path id="node_outline5" fill="rgb(238, 243, 246)" stroke="rgb(115, 161, 191)" d="M-42,-16h115a3,3,0,0,1,3,3v26a3,3,0,0,1,-3,3h-115a3,3,0,0,1,-3,-3v-26a3,3,0,0,1,3,-3z" stroke-width="1"></path><g id="node_text5" transform="translate( 0 0 )" fill="black"><text id="kity_text_57" text-rendering="inherit" dominant-baseline="text-before-edge" font-size="14" dy="0" y="-7">列表数据</text></g><g id="node_priority4" transform="translate( -25 -10 )"><path id="kity_path_119" fill="#B25000" stroke="none" d="M0,13c0,3.866,3.134,7,7,7h6c3.866,0,7-3.134,7-7V7H0V13z" transform="translate( 0.5 0.5 )"></path><path id="kity_path_120" fill="#FF962E" stroke="none" d="M20,10c0,3.866-3.134,7-7,7H7c-3.866,0-7-3.134-7-7V7c0-3.866,3.134-7,7-7h6c3.866,0,7,3.134,7,7V10z" opacity="0.8" transform="translate( 0.5 0.5 )"></path><text id="kity_text_121" text-rendering="geometricPrecision" x="9.5" y="10" text-anchor="middle" font-style="italic" font-size="12" fill="white" dy="4">4</text></g></g><g id="minder_node6" transform="matrix( 1 0 0 1 333 108 )" opacity="1"><g id="node_expander5" transform="translate( -52 0 )" style="cursor: pointer;" display="none"><path id="kity_path_68" fill="white" stroke="gray" d="M6,0A6,6,0,1,1,-6,0A6,6,0,1,1,6,0"></path><path id="kity_path_69" fill="none" stroke="gray"></path></g><path id="node_outline6" fill="rgb(238, 243, 246)" stroke="rgb(115, 161, 191)" d="M-42,-16h115a3,3,0,0,1,3,3v26a3,3,0,0,1,-3,3h-115a3,3,0,0,1,-3,-3v-26a3,3,0,0,1,3,-3z" stroke-width="1"></path><g id="node_text6" transform="translate( 0 0 )" fill="black"><text id="kity_text_65" text-rendering="inherit" dominant-baseline="text-before-edge" font-size="14" dy="0" y="-7">表项数据</text></g><g id="node_priority5" transform="translate( -25 -10 )"><path id="kity_path_124" fill="#4720C4" stroke="none" d="M0,13c0,3.866,3.134,7,7,7h6c3.866,0,7-3.134,7-7V7H0V13z" transform="translate( 0.5 0.5 )"></path><path id="kity_path_125" fill="#A464FF" stroke="none" d="M20,10c0,3.866-3.134,7-7,7H7c-3.866,0-7-3.134-7-7V7c0-3.866,3.134-7,7-7h6c3.866,0,7,3.134,7,7V10z" opacity="0.8" transform="translate( 0.5 0.5 )"></path><text id="kity_text_126" text-rendering="geometricPrecision" x="9.5" y="10" text-anchor="middle" font-style="italic" font-size="12" fill="white" dy="4">5</text></g><g id="node_progress1" transform="translate( -40 0 ) matrix( 1 0 0 1 0.5 0.5 )" display="none"><path id="kity_path_128" fill="#FFED83" stroke="none" d="M9,0A9,9,0,1,1,-9,0A9,9,0,1,1,9,0"></path><path id="kity_path_129" fill="#43BC00" stroke="none" d="M0 0L9 0A9,9,0,0,1,-9 1.102182119232618e-15A9,9,0,0,1,9 -2.204364238465236e-15L0 0z"></path><path id="kity_path_130" fill="#8E8E8E" stroke="none" d="M10,3c4.418,0,8,3.582,8,8h1c0-5.523-3.477-10-9-10S1,5.477,1,11h1C2,6.582,5.582,3,10,3z" transform="translate( -10 -10 )"></path><path id="kity_path_132" fill="#EEE" stroke="none" transform="translate( -10 -10 )" d="M15.812,7.896l-6.75,6.75l-4.5-4.5L6.25,8.459l2.812,2.803l5.062-5.053L15.812,7.896z"></path><path id="kity_path_131" fill="url(#kity_linearGradient_17)" stroke="none" transform="translate( -10 -10 )" d="M10,0C4.477,0,0,4.477,0,10c0,5.523,4.477,10,10,10s10-4.477,10-10C20,4.477,15.523,0,10,0zM10,18c-4.418,0-8-3.582-8-8s3.582-8,8-8s8,3.582,8,8S14.418,18,10,18z"></path></g></g><g id="kity_g_12" display="none"><path id="kity_path_13" fill="none" stroke="rgb(66, 94, 112)" d="M-19,-20h182a5,5,0,0,1,5,5v30a5,5,0,0,1,-5,5h-182a5,5,0,0,1,-5,-5v-30a5,5,0,0,1,5,-5z" stroke-width="5"></path></g></g></g></svg>